<svg width="228" height="39" viewBox="0 0 228 39" fill="none" xmlns="http://www.w3.org/2000/svg">
<path d="M60.2384 23.5243V20.5644H70.0486V23.5243H60.2384ZM54.4002 31.5498V12.1656H70.8483V15.5518H57.759V31.5498H54.4002Z" fill="white"/>
<path d="M90.8155 31.5503L87.9097 26.6711H78.7393L80.3389 23.9247H86.2837L81.965 16.6719L73.1679 31.5503H69.3024L80.4454 12.9926C80.6406 12.6549 80.8718 12.3885 81.1386 12.1922C81.4052 11.9975 81.7251 11.8987 82.0984 11.8987C82.4715 11.8987 82.7869 11.9975 83.0447 12.1922C83.3021 12.3885 83.5284 12.6549 83.7245 12.9926L94.8945 31.5503H90.8155Z" fill="white"/>
<path d="M96.9735 31.5503V28.1641H111.502C112.409 28.1641 113.106 27.9334 113.595 27.4707C114.083 27.0086 114.328 26.3958 114.328 25.6306C114.328 24.7958 114.083 24.1688 113.595 23.7516C113.106 23.3341 112.409 23.1245 111.502 23.1245H102.598C101.692 23.1245 100.87 22.9871 100.132 22.7118C99.3948 22.4365 98.7729 22.0536 98.2665 21.5645C97.7598 21.0762 97.3688 20.4938 97.0935 19.8179C96.8177 19.1427 96.6803 18.4055 96.6803 17.6054C96.6803 16.8233 96.8093 16.0987 97.0665 15.4318C97.3244 14.7656 97.7067 14.1925 98.2131 13.7124C98.7196 13.232 99.3459 12.8552 100.092 12.5794C100.839 12.304 101.692 12.166 102.651 12.166H116.568V15.5523H102.651C101.87 15.5523 101.265 15.7613 100.839 16.1793C100.412 16.5968 100.199 17.1784 100.199 17.9251C100.199 18.6721 100.416 19.2497 100.852 19.6583C101.288 20.0676 101.878 20.2713 102.625 20.2713H111.502C113.475 20.2713 114.972 20.734 115.994 21.6578C117.016 22.5826 117.527 23.9875 117.527 25.8716C117.527 26.6894 117.403 27.4443 117.154 28.1377C116.905 28.831 116.531 29.4303 116.034 29.9369C115.537 30.4437 114.91 30.8392 114.155 31.1235C113.399 31.4081 112.515 31.5503 111.502 31.5503H96.9735Z" fill="white"/>
<path d="M126.644 31.5503V15.5523H119.287V12.166H137.388V15.5523H130.03V31.5503H126.644Z" fill="white"/>
<path d="M145.464 26.1643V22.8848H153.248C154.439 22.8848 155.368 22.5474 156.034 21.8715C156.701 21.1966 157.034 20.3078 157.034 19.2051C157.034 18.0855 156.701 17.1961 156.034 16.5392C155.368 15.881 154.439 15.5523 153.248 15.5523H142.985V31.5503H139.626V12.166H153.248C154.368 12.166 155.368 12.3304 156.248 12.6591C157.127 12.9887 157.869 13.45 158.474 14.0458C159.077 14.6412 159.54 15.3654 159.86 16.2187C160.18 17.0722 160.34 18.0321 160.34 19.0981C160.34 20.1474 160.18 21.1032 159.86 21.9643C159.54 22.8276 159.077 23.569 158.474 24.1913C157.869 24.8136 157.127 25.2979 156.248 25.6448C155.368 25.9905 154.368 26.1643 153.248 26.1643H145.464Z" fill="white"/>
<path d="M180.733 31.5503L175.828 26.1643H168.577V23.1779H176.655C177.881 23.1779 178.805 22.8445 179.427 22.178C180.049 21.5111 180.36 20.548 180.36 19.2849C180.36 18.0234 180.036 17.0851 179.388 16.4724C178.738 15.8588 177.827 15.5523 176.655 15.5523H166.098V31.5503H162.739V12.166H176.655C177.757 12.166 178.743 12.3304 179.614 12.6591C180.485 12.9887 181.222 13.4593 181.826 14.0723C182.43 14.6858 182.892 15.4278 183.213 16.2985C183.533 17.1697 183.692 18.1479 183.692 19.2316C183.692 20.8495 183.341 22.2053 182.639 23.2984C181.937 24.3908 180.955 25.1774 179.694 25.6578L185.532 31.5503H180.733Z" fill="white"/>
<path d="M200.407 28.1641C201.295 28.1641 202.113 28.0042 202.86 27.6837C203.606 27.3645 204.249 26.924 204.793 26.3638C205.334 25.8044 205.756 25.1335 206.059 24.3514C206.36 23.569 206.512 22.7247 206.512 21.8182C206.512 20.9118 206.36 20.0716 206.059 19.2984C205.756 18.5252 205.334 17.863 204.793 17.3119C204.249 16.7612 203.606 16.3302 202.86 16.0184C202.113 15.7079 201.295 15.5523 200.407 15.5523H195.688C194.818 15.5523 194.013 15.7079 193.276 16.0184C192.538 16.3302 191.903 16.7612 191.37 17.3119C190.836 17.863 190.419 18.5205 190.117 19.2849C189.815 20.0493 189.663 20.8941 189.663 21.8182C189.663 22.7247 189.815 23.569 190.117 24.3514C190.419 25.1335 190.836 25.8044 191.37 26.3638C191.903 26.924 192.538 27.3645 193.276 27.6837C194.013 28.0042 194.818 28.1641 195.688 28.1641H200.407ZM195.688 31.5503C194.337 31.5503 193.089 31.2972 191.943 30.7906C190.797 30.2841 189.801 29.5907 188.957 28.7105C188.113 27.8304 187.455 26.7866 186.985 25.578C186.514 24.3691 186.278 23.0622 186.278 21.6578C186.278 20.2367 186.514 18.9385 186.985 17.765C187.455 16.592 188.113 15.5922 188.957 14.7656C189.801 13.9388 190.797 13.2991 191.943 12.8457C193.089 12.3925 194.337 12.166 195.688 12.166H200.407C201.811 12.166 203.095 12.3973 204.259 12.8587C205.423 13.3214 206.422 13.97 207.258 14.8055C208.094 15.6416 208.742 16.6415 209.205 17.8055C209.666 18.9697 209.897 20.2544 209.897 21.6578C209.897 23.0622 209.661 24.3691 209.191 25.578C208.72 26.7866 208.062 27.8304 207.219 28.7105C206.374 29.5907 205.374 30.2841 204.219 30.7906C203.063 31.2972 201.794 31.5503 200.407 31.5503H195.688Z" fill="white"/>
<path d="M216.077 7.65879V6.86812H218.395C218.662 6.86812 218.858 6.81898 218.986 6.72075C219.114 6.62202 219.179 6.45463 219.179 6.21848C219.179 6.07565 219.151 5.96114 219.097 5.87461C219.043 5.78838 218.965 5.72221 218.865 5.67553C218.764 5.62881 218.643 5.59758 218.502 5.58313C218.362 5.56814 218.206 5.56102 218.034 5.56102H215.397V9.06225H218.115C218.282 9.06225 218.438 9.04972 218.58 9.02515C218.723 9.00058 218.846 8.96007 218.949 8.90348C219.053 8.84689 219.133 8.77402 219.189 8.68536C219.246 8.59704 219.274 8.48595 219.274 8.35303C219.274 8.131 219.205 7.9604 219.067 7.83951C218.93 7.71884 218.728 7.65879 218.462 7.65879H216.077ZM214.459 9.9928V4.62277H218.388C218.649 4.62277 218.887 4.65238 219.101 4.71159C219.315 4.7703 219.498 4.85816 219.651 4.97347C219.803 5.0896 219.922 5.23455 220.005 5.4094C220.089 5.58425 220.131 5.78496 220.131 6.01157C220.131 6.18396 220.111 6.33379 220.072 6.46212C220.032 6.58996 219.978 6.69993 219.91 6.79104C219.841 6.88178 219.76 6.95806 219.669 7.01973C219.578 7.08136 219.483 7.12675 219.385 7.15669C219.632 7.23539 219.833 7.37822 219.991 7.5848C220.148 7.79171 220.227 8.05276 220.227 8.36802C220.227 8.61411 220.187 8.83694 220.105 9.03635C220.024 9.23581 219.908 9.40691 219.758 9.54974C219.608 9.69219 219.426 9.80217 219.211 9.87829C218.997 9.95457 218.76 9.9928 218.499 9.9928H214.459Z" fill="white"/>
<path d="M226.032 9.9928L224.673 8.50089H222.664V7.67345H224.902C225.242 7.67345 225.498 7.58105 225.67 7.39662C225.842 7.21166 225.928 6.94474 225.928 6.59504C225.928 6.24513 225.839 5.98571 225.659 5.8159C225.479 5.64592 225.227 5.56102 224.902 5.56102H221.978V9.9928H221.047V4.62277H224.902C225.207 4.62277 225.48 4.66816 225.722 4.75943C225.963 4.85067 226.167 4.98096 226.334 5.15077C226.502 5.32075 226.63 5.52683 226.719 5.76789C226.807 6.00911 226.852 6.27978 226.852 6.58038C226.852 7.02852 226.754 7.40362 226.56 7.70681C226.366 8.00949 226.093 8.22765 225.744 8.36052L227.361 9.9928H226.032Z" fill="white"/>
<path d="M23.0295 14.8604C22.4597 14.8604 21.9978 14.3983 21.9978 13.8282V5.65744C21.9978 3.63162 22.4629 2.18403 23.4199 1.23157C24.5219 0.135137 25.9769 -0.0105438 27.242 0.000777245C30.2069 0.0163698 31.0882 1.48853 31.9406 2.91241L32.0802 3.14545C32.3754 3.63333 32.219 4.26773 31.7313 4.5625C31.2435 4.85728 30.609 4.70092 30.3145 4.21326L30.1697 3.97274C29.4133 2.70885 29.0338 2.07445 27.2311 2.06505C26.3406 2.05779 25.4398 2.1334 24.8753 2.69497C24.3352 3.23239 24.0614 4.22907 24.0614 5.65744V13.8282C24.0614 14.3983 23.5993 14.8604 23.0295 14.8604Z" fill="white"/>
<path d="M23.0295 31.7815C22.4597 31.7815 21.9978 31.3195 21.9978 30.7493V14.3378C21.9978 12.3122 22.4627 10.8646 23.4197 9.91253C24.5217 8.8161 25.9831 8.69157 27.2418 8.68132C27.8116 8.68431 28.2716 9.14868 28.2684 9.71879C28.2654 10.287 27.8041 10.7454 27.2367 10.7454C27.2108 10.746 27.1841 10.7452 27.1583 10.7452C26.2921 10.7452 25.4242 10.8295 24.8753 11.3757C24.3352 11.9131 24.0614 12.9096 24.0614 14.3378V30.7493C24.0614 31.3195 23.5993 31.7815 23.0295 31.7815Z" fill="white"/>
<path d="M27.8793 38.9999C24.3609 38.9999 21.9978 35.8522 21.9978 32.9128V30.4632C21.9995 28.9082 22.7192 27.5984 24.1364 26.569C25.0607 25.8977 26.1445 25.5802 27.3452 25.63C27.9145 25.6527 28.3579 26.1326 28.335 26.7025C28.3122 27.272 27.8257 27.7097 27.2629 27.692C26.533 27.6639 25.8885 27.8474 25.3492 28.239C24.2092 29.0669 24.0621 29.863 24.0614 30.4643V32.9128C24.0614 34.8554 25.5955 36.9358 27.8793 36.9358C30.5648 36.9358 31.6315 35.3014 32.0281 34.3275C32.1866 33.9388 32.5644 33.6848 32.9838 33.6848C34.2759 33.6848 35.7027 33.1516 36.2323 32.4709C36.9229 31.5825 37.1653 30.4682 36.88 29.4901C36.7803 29.1481 36.864 28.7785 37.1017 28.513C38.0766 27.4236 38.401 26.9136 38.401 26.0412C38.401 24.904 38.1644 24.4475 37.5989 23.7947C37.2256 23.3639 37.2721 22.712 37.7027 22.3388C38.1336 21.9652 38.7854 22.012 39.1583 22.4426C40.1229 23.5559 40.4646 24.4977 40.4646 26.0412C40.4646 27.5204 39.8483 28.4863 38.9924 29.4877C39.2335 30.943 38.8283 32.4941 37.8611 33.7378C36.9304 34.9348 35.1512 35.5667 33.6546 35.7147C32.5516 37.7843 30.4392 38.9999 27.8793 38.9999Z" fill="white"/>
<path d="M31.6825 26.1332C31.2146 26.1332 30.7906 25.8128 30.6792 25.3371C30.6753 25.3221 30.2283 23.5165 29.0516 22.6773C28.1468 22.0318 26.5549 22.0258 26.0173 22.0777C25.4533 22.133 24.9463 21.7186 24.89 21.1526C24.8338 20.5863 25.2453 20.0814 25.8113 20.0239C26.087 19.9959 28.5515 19.7849 30.2499 20.9966C32.0665 22.2926 32.6634 24.7606 32.6879 24.865C32.8184 25.4197 32.4741 25.9751 31.9197 26.1056C31.8401 26.1242 31.7609 26.1332 31.6825 26.1332Z" fill="white"/>
<path d="M31.0429 17.496C29.2118 17.496 27.5815 16.4698 26.6153 15.4133C26.2305 14.9927 26.2595 14.34 26.6798 13.9551C27.1001 13.571 27.753 13.5994 28.1378 14.02C28.3174 14.2159 29.9467 15.9162 31.8899 15.2997C33.6137 14.7507 33.9823 13.6936 34.0366 12.0529C34.0554 11.4834 34.5205 11.0368 35.1018 11.0554C35.6714 11.0744 36.1177 11.5514 36.0992 12.1211C36.037 14.0055 35.5734 16.2932 32.516 17.2666C32.0169 17.4255 31.5227 17.496 31.0429 17.496Z" fill="white"/>
<path d="M35.3166 20.8892C35.2391 20.8892 35.1605 20.8806 35.0821 20.8625C32.9856 20.3754 30.7026 18.7029 30.6009 16.563C30.5738 15.9936 31.0133 15.5102 31.5823 15.4833C32.161 15.4463 32.6351 15.896 32.662 16.4648C32.7062 17.3893 34.0553 18.5047 35.5491 18.8516C36.104 18.9808 36.4495 19.5353 36.3207 20.0905C36.2097 20.567 35.7856 20.8892 35.3166 20.8892Z" fill="white"/>
<path d="M28.0692 34.5768C27.9971 34.5768 27.9244 34.5693 27.8512 34.5535C27.294 34.4337 26.9397 33.885 27.0597 33.3277C27.1178 33.057 27.6769 30.6466 29.353 29.4044C31.1447 28.0751 33.6756 28.2676 33.7835 28.2761C34.3511 28.3229 34.7736 28.8219 34.7266 29.3899C34.6798 29.9583 34.1741 30.3786 33.6131 30.3334C33.5973 30.3312 31.7429 30.2016 30.5822 31.0624C29.6844 31.7282 29.1821 33.2732 29.0768 33.7619C28.973 34.2457 28.5453 34.5768 28.0692 34.5768Z" fill="white"/>
<path d="M36.5706 8.95667C36.0008 8.95667 35.5386 8.49464 35.5386 7.92475C35.5386 6.10655 34.0879 4.73521 32.1639 4.73521C31.0867 4.73521 30.0967 5.22992 29.4479 6.09245C29.1055 6.54849 28.4585 6.63885 28.0029 6.29644C27.5476 5.95382 27.4562 5.30681 27.799 4.8512C28.8412 3.46598 30.4324 2.67115 32.1639 2.67115C35.2134 2.67115 37.6025 4.97872 37.6025 7.92475C37.6025 8.49464 37.1403 8.95667 36.5706 8.95667Z" fill="white"/>
<path d="M36.7644 24.3755C36.1742 24.3755 35.592 24.2849 35.034 24.1063C34.4913 23.9327 34.1919 23.3519 34.3655 22.8089C34.5393 22.2668 35.1204 21.9665 35.6627 22.1405C36.017 22.2538 36.3877 22.3112 36.7644 22.3112C38.7565 22.3112 40.3772 20.6904 40.3772 18.6979C40.3772 17.3868 39.6648 16.1761 38.5178 15.5376C38.0294 15.2657 37.8463 14.6535 38.1052 14.1575C38.3884 13.615 38.8074 12.6104 38.8074 12.1776C38.8074 10.4466 37.3996 9.03851 35.6689 9.03851C34.7852 9.03851 33.9375 9.41445 33.3432 10.0698C33.0923 10.3464 32.8947 10.6615 32.7561 11.0056C32.5432 11.5345 31.9412 11.7904 31.4134 11.5772C30.8847 11.3644 30.6288 10.7631 30.842 10.2345C31.072 9.6633 31.3991 9.14125 31.8145 8.68329C32.7997 7.59732 34.2043 6.97445 35.6689 6.97445C38.5374 6.97445 40.8712 9.30851 40.8712 12.1776C40.8712 12.8366 40.5865 13.6613 40.3266 14.2774C41.6497 15.345 42.4409 16.9658 42.4409 18.6979C42.4409 21.8287 39.8944 24.3755 36.7644 24.3755Z" fill="white"/>
<path d="M23.5221 30.4511C23.5221 30.7288 23.2846 30.9561 22.9944 30.9561C22.7042 30.9561 22.4667 30.7288 22.4667 30.4511C22.4667 30.1736 22.7042 29.9465 22.9944 29.9465C23.2846 29.9465 23.5221 30.1736 23.5221 30.4511Z" fill="white"/>
<path d="M23.5221 25.0543C23.5221 25.332 23.2846 25.5591 22.9944 25.5591C22.7042 25.5591 22.4667 25.332 22.4667 25.0543C22.4667 24.7767 22.7042 24.5496 22.9944 24.5496C23.2846 24.5496 23.5221 24.7767 23.5221 25.0543Z" fill="white"/>
<path d="M23.5221 19.4213C23.5221 19.6988 23.2846 19.926 22.9944 19.926C22.7042 19.926 22.4667 19.6988 22.4667 19.4213C22.4667 19.1436 22.7042 18.9165 22.9944 18.9165C23.2846 18.9165 23.5221 19.1436 23.5221 19.4213Z" fill="white"/>
<path d="M23.5221 13.7233C23.5221 14.001 23.2846 14.228 22.9944 14.228C22.7042 14.228 22.4667 14.001 22.4667 13.7233C22.4667 13.4456 22.7042 13.2185 22.9944 13.2185C23.2846 13.2185 23.5221 13.4456 23.5221 13.7233Z" fill="white"/>
<path d="M23.5221 8.02574C23.5221 8.30321 23.2846 8.53027 22.9944 8.53027C22.7042 8.53027 22.4667 8.30321 22.4667 8.02574C22.4667 7.74806 22.7042 7.52078 22.9944 7.52078C23.2846 7.52078 23.5221 7.74806 23.5221 8.02574Z" fill="white"/>
<path d="M23.7802 3.48866C23.7802 3.76635 23.5427 3.99341 23.2525 3.99341C22.9623 3.99341 22.7248 3.76635 22.7248 3.48866C22.7248 3.21119 22.9623 2.98392 23.2525 2.98392C23.5427 2.98392 23.7802 3.21119 23.7802 3.48866Z" fill="white"/>
<path d="M23.7802 34.2572C23.7802 34.5348 23.5427 34.7617 23.2525 34.7617C22.9623 34.7617 22.7248 34.5348 22.7248 34.2572C22.7248 33.9795 22.9623 33.7522 23.2525 33.7522C23.5427 33.7522 23.7802 33.9795 23.7802 34.2572Z" fill="white"/>
<path d="M18.9581 32.9128C18.9581 34.8554 17.424 36.9358 15.1404 36.9358C12.4548 36.9358 11.3881 35.3014 10.9913 34.3275C10.8331 33.9388 10.4552 33.6848 10.0358 33.6848C8.74365 33.6848 7.31689 33.1516 6.78732 32.4709C6.09658 31.5825 5.85423 30.4682 6.13938 29.4901C6.23916 29.1481 6.15557 28.7785 5.91781 28.513C4.9431 27.4236 4.61859 26.9136 4.61859 26.0412C4.61859 25.1802 4.75499 24.7092 5.06632 24.248C5.45007 24.3302 5.84714 24.3755 6.255 24.3755C6.84531 24.3755 7.4275 24.285 7.98568 24.1064C8.52834 23.9327 8.82767 23.3519 8.65406 22.809C8.4802 22.2668 7.89902 21.9665 7.35694 22.1406C7.00247 22.2538 6.63166 22.3113 6.255 22.3113C4.26288 22.3113 2.64232 20.6904 2.64232 18.6979C2.64232 17.3868 3.35474 16.1761 4.50162 15.5377C4.99014 15.2657 5.17302 14.6535 4.91433 14.1576C4.63119 13.615 4.21199 12.6104 4.21199 12.1777C4.21199 10.4466 5.62 9.03854 7.35068 9.03854C8.23429 9.03854 9.0821 9.41449 9.67631 10.0698C9.92725 10.3464 10.1247 10.6615 10.2635 11.0056C10.4762 11.5345 11.0783 11.7904 11.6061 11.5772C12.1347 11.3645 12.3907 10.7632 12.1776 10.2345C11.9477 9.66333 11.6203 9.14128 11.2049 8.68332C10.2805 7.664 8.98525 7.05993 7.61872 6.98858C8.02222 5.65612 9.27939 4.73506 10.8556 4.73506C11.9327 4.73506 12.9228 5.22977 13.5716 6.0923C13.914 6.54835 14.5609 6.6387 15.0167 6.29629C15.4719 5.95367 15.5633 5.30667 15.2207 4.85105C14.7013 4.16068 14.0453 3.61749 13.3038 3.24581C13.8356 2.46637 14.3737 2.07228 15.7883 2.0648C16.679 2.05754 17.5797 2.13316 18.1442 2.69472C18.6843 3.23215 18.9581 4.22882 18.9581 5.65719V9.41192C17.9661 8.78393 16.8058 8.68973 15.7777 8.6814C15.2079 8.68439 14.7481 9.14876 14.7511 9.71887C14.7542 10.2871 15.2154 10.7455 15.783 10.7455C15.8088 10.7461 15.8355 10.7452 15.8614 10.7452C16.7274 10.7452 17.5954 10.8296 18.1442 11.3758C18.6843 11.9132 18.9581 12.9097 18.9581 14.3378V26.629C18.9321 26.6094 18.9098 26.588 18.8831 26.569C17.9589 25.8977 16.8751 25.5802 15.6744 25.63C15.105 25.6527 14.6618 26.1326 14.6844 26.7025C14.7073 27.272 15.194 27.7097 15.7565 27.692C16.4867 27.6639 17.131 27.8474 17.6704 28.239C18.8103 29.0669 18.9575 29.863 18.9581 30.4643V30.7494V32.9128ZM21.022 5.65719C21.022 3.63137 20.5566 2.18378 19.5996 1.23132C18.4977 0.134888 17.0426 -0.0107918 15.7775 0.000530243C12.9658 0.0152664 12.0279 1.34025 11.2116 2.69151C11.0931 2.68382 10.9755 2.67101 10.8556 2.67101C8.01171 2.67101 5.74412 4.67846 5.45114 7.33868C3.52033 8.09954 2.14829 9.97968 2.14829 12.1777C2.14829 12.8366 2.43301 13.6614 2.69295 14.2774C1.36988 15.345 0.578613 16.9658 0.578613 18.6979C0.578613 20.681 1.60213 22.4275 3.14694 23.4431C2.72524 24.192 2.55489 24.9719 2.55489 26.0412C2.55489 27.5204 3.17131 28.4863 4.0273 29.4877C3.78619 30.943 4.19113 32.4941 5.15841 33.7378C6.089 34.9348 7.86831 35.5667 9.36499 35.7147C10.4678 37.7843 12.5804 38.9999 15.1404 38.9999C18.6587 38.9999 21.022 35.8522 21.022 32.9128V30.7494V30.4632V14.3378C21.022 14.2018 21.0143 14.0753 21.0102 13.9444C21.0145 13.9057 21.022 13.8681 21.022 13.828V5.65719Z" fill="white"/>
<path d="M12.7695 20.9966C10.953 22.2926 10.3559 24.7606 10.3315 24.865C10.201 25.4197 10.5452 25.9751 11.0998 26.1056C11.1791 26.1242 11.2586 26.1332 11.337 26.1332C11.805 26.1332 12.2288 25.8128 12.3403 25.3371C12.344 25.3221 12.7912 23.5165 13.9679 22.6773C14.8726 22.0318 16.4645 22.0258 17.0019 22.0777C17.566 22.133 18.0733 21.7186 18.1292 21.1526C18.1854 20.5863 17.7741 20.0814 17.2082 20.0239C16.9325 19.9959 14.468 19.7849 12.7695 20.9966Z" fill="white"/>
<path d="M12.2326 17.4785C13.9579 17.3882 15.4835 16.4199 16.4042 15.4134C16.7889 14.9928 16.7599 14.3401 16.3394 13.9551C15.9192 13.5711 15.2666 13.5995 14.8816 14.0201C14.7019 14.216 13.0726 15.9162 11.1296 15.2998C9.40571 14.7508 9.03715 13.6937 8.98293 12.053C8.96409 11.4835 8.49874 11.0369 7.91764 11.0555C7.34811 11.0745 6.90162 11.5515 6.92022 12.1211C6.97979 13.9237 7.41276 16.0925 10.1263 17.1295C9.67467 17.8671 8.6162 18.5857 7.47014 18.8516C6.91523 18.9808 6.5696 19.5353 6.69865 20.0905C6.80953 20.567 7.23365 20.8892 7.70273 20.8892C7.78006 20.8892 7.85865 20.8806 7.93722 20.8625C9.72338 20.4474 11.6399 19.1705 12.2326 17.4785Z" fill="white"/>
<path d="M13.6664 29.4044C11.8748 28.0751 9.34383 28.2676 9.23605 28.2761C8.6681 28.3229 8.246 28.8219 8.29288 29.3899C8.33967 29.9583 8.8453 30.3786 9.40632 30.3334C9.42217 30.3312 11.2766 30.2016 12.4374 31.0624C13.3352 31.7282 13.8373 33.2732 13.9425 33.7619C14.0466 34.2457 14.4743 34.5768 14.9502 34.5768C15.0223 34.5768 15.0951 34.5693 15.1684 34.5535C15.7253 34.4337 16.0798 33.885 15.9599 33.3277C15.9017 33.057 15.3425 30.6466 13.6664 29.4044Z" fill="white"/>
</svg>
